name ./resultDataOpenSim/trcMotMarkerGrf/sub10/grf-13-04.mot
datacolumns 19
datarows 12
range 0.95600000 1.00000000
endheader

                time	     ground_force_vx	     ground_force_vy	     ground_force_vz	     ground_force_px	     ground_force_py	     ground_force_pz	   l_ground_force_vx	   l_ground_force_vy	   l_ground_force_vz	   l_ground_force_px	   l_ground_force_py	   l_ground_force_pz	     ground_torque_x	     ground_torque_y	     ground_torque_z	   l_ground_torque_x	   l_ground_torque_y	   l_ground_torque_z	
          0.95600000	          0.00000000	          0.00000000	          0.00000000	          0.00000000	          0.00000000	          0.00000000	         16.18376647	        951.40877759	         43.68462144	          0.06090533	         -0.05000200	         -0.14968146	          0.00000000	          0.00000000	          0.00000000	          0.00000000	         -5.77064665	          0.00000000	
          0.96000000	          0.00000000	          0.00000000	          0.00000000	          0.00000000	          0.00000000	          0.00000000	         23.38242991	        961.19717144	         43.91900883	          0.06132946	         -0.05000200	         -0.14920512	          0.00000000	          0.00000000	          0.00000000	          0.00000000	         -5.84290822	          0.00000000	
          0.96400000	          0.00000000	          0.00000000	          0.00000000	          0.00000000	          0.00000000	          0.00000000	         30.77976738	        969.87964744	         43.87680561	          0.06164066	         -0.05000200	         -0.14880846	          0.00000000	          0.00000000	          0.00000000	          0.00000000	         -5.90060469	          0.00000000	
          0.96800000	          0.00000000	          0.00000000	          0.00000000	          0.00000000	          0.00000000	          0.00000000	         38.33899935	        977.24373373	         43.53093975	          0.06181411	         -0.05000200	         -0.14849876	          0.00000000	          0.00000000	          0.00000000	          0.00000000	         -5.94482329	          0.00000000	
          0.97200000	          0.00000000	          0.00000000	          0.00000000	          0.00000000	          0.00000000	          0.00000000	         46.02417826	        983.17798962	         42.84228590	          0.06188170	         -0.05000200	         -0.14822974	          0.00000000	          0.00000000	          0.00000000	          0.00000000	         -5.97684418	          0.00000000	
          0.97600000	          0.00000000	          0.00000000	          0.00000000	          0.00000000	          0.00000000	          0.00000000	         53.81503878	        987.58902601	         41.75795267	          0.06191688	         -0.05000200	         -0.14794073	          0.00000000	          0.00000000	          0.00000000	          0.00000000	         -5.99798741	          0.00000000	
          0.98000000	          0.00000000	          0.00000000	          0.00000000	          0.00000000	          0.00000000	          0.00000000	         61.70946392	        990.32471448	         40.22910009	          0.06199888	         -0.05000200	         -0.14759690	          0.00000000	          0.00000000	          0.00000000	          0.00000000	         -6.00901698	          0.00000000	
          0.98400000	          0.00000000	          0.00000000	          0.00000000	          0.00000000	          0.00000000	          0.00000000	         69.72062549	        991.18450515	         38.23982781	          0.06217209	         -0.05000192	         -0.14720096	          0.00000000	          0.00000000	          0.00000000	          0.00000000	         -6.00949026	          0.00000000	
          0.98800000	          0.00000000	          0.00000000	          0.00000000	          0.00000000	          0.00000000	          0.00000000	         77.88015664	        989.96499461	         35.83184351	          0.06242515	         -0.05000144	         -0.14678052	          0.00000000	          0.00000000	          0.00000000	          0.00000000	         -5.99750290	          0.00000000	
          0.99200000	          0.00000000	          0.00000000	          0.00000000	          0.00000000	          0.00000000	          0.00000000	         86.22839130	        986.48235746	         33.09168348	          0.06271384	         -0.05000100	         -0.14637599	          0.00000000	          0.00000000	          0.00000000	          0.00000000	         -5.97007914	          0.00000000	
          0.99600000	          0.00000000	          0.00000000	          0.00000000	          0.00000000	          0.00000000	          0.00000000	         94.78624129	        980.60375606	         30.10016930	          0.06298899	         -0.05000100	         -0.14602641	          0.00000000	          0.00000000	          0.00000000	          0.00000000	         -5.92412123	          0.00000000	
          1.00000000	          0.00000000	          0.00000000	          0.00000000	          0.00000000	          0.00000000	          0.00000000	        103.53558987	        972.30668980	         26.89351530	          0.06322953	         -0.05000100	         -0.14574829	          0.00000000	          0.00000000	          0.00000000	          0.00000000	         -5.85752735	          0.00000000	
